<svg width="36" height="36" viewBox="0 0 36 36" fill="none" xmlns="http://www.w3.org/2000/svg">
<path d="M28.8975 11.625C28.7895 11.5576 28.6662 11.5188 28.5391 11.5122C28.412 11.5057 28.2853 11.5316 28.1709 11.5875C24.1462 13.5562 21.2719 12.6337 18.2334 11.6606C15.0375 10.6434 11.7375 9.58872 7.17094 11.8181C7.04482 11.8797 6.93851 11.9754 6.8641 12.0944C6.78969 12.2134 6.75016 12.3509 6.75 12.4912V23.7347C6.74998 23.8619 6.78234 23.9871 6.84404 24.0984C6.90573 24.2097 6.99472 24.3034 7.10265 24.3709C7.21057 24.4383 7.33388 24.4771 7.46096 24.4837C7.58804 24.4904 7.71471 24.4646 7.82906 24.4087C11.8538 22.44 14.7281 23.3625 17.7712 24.3356C19.575 24.9122 21.4125 25.5 23.49 25.5C25.0922 25.5 26.8397 25.1512 28.8253 24.1818C28.9514 24.1203 29.0577 24.0245 29.1322 23.9055C29.2066 23.7866 29.2461 23.6491 29.2463 23.5087V12.2653C29.2474 12.1377 29.2159 12.0119 29.1549 11.8999C29.0939 11.7878 29.0053 11.6932 28.8975 11.625ZM10.5 20.25C10.5 20.4489 10.421 20.6396 10.2803 20.7803C10.1397 20.921 9.94891 21 9.75 21C9.55109 21 9.36032 20.921 9.21967 20.7803C9.07902 20.6396 9 20.4489 9 20.25V14.25C9 14.0511 9.07902 13.8603 9.21967 13.7196C9.36032 13.579 9.55109 13.5 9.75 13.5C9.94891 13.5 10.1397 13.579 10.2803 13.7196C10.421 13.8603 10.5 14.0511 10.5 14.25V20.25ZM18 21C17.4067 21 16.8266 20.824 16.3333 20.4944C15.8399 20.1647 15.4554 19.6962 15.2284 19.148C15.0013 18.5998 14.9419 17.9966 15.0576 17.4147C15.1734 16.8328 15.4591 16.2982 15.8787 15.8787C16.2982 15.4591 16.8328 15.1734 17.4147 15.0576C17.9967 14.9419 18.5999 15.0013 19.1481 15.2283C19.6962 15.4554 20.1648 15.8399 20.4944 16.3333C20.8241 16.8266 21 17.4066 21 18C21 18.7956 20.6839 19.5587 20.1213 20.1213C19.5587 20.6839 18.7956 21 18 21ZM27 21.75C27 21.9489 26.921 22.1396 26.7803 22.2803C26.6397 22.421 26.4489 22.5 26.25 22.5C26.0511 22.5 25.8603 22.421 25.7197 22.2803C25.579 22.1396 25.5 21.9489 25.5 21.75V15.75C25.5 15.5511 25.579 15.3603 25.7197 15.2196C25.8603 15.079 26.0511 15 26.25 15C26.4489 15 26.6397 15.079 26.7803 15.2196C26.921 15.3603 27 15.5511 27 15.75V21.75Z" fill="white"/>
</svg>
