<svg width="36" height="36" viewBox="0 0 36 36" fill="none" xmlns="http://www.w3.org/2000/svg">
<rect width="36" height="36" rx="18" fill="#E9ECEC"/>
<path d="M28.5 23.25H27.75V11.4281L28.6566 11.2331C28.755 11.2147 28.8487 11.1767 28.9321 11.1215C29.0156 11.0662 29.0872 10.9948 29.1427 10.9115C29.1981 10.8282 29.2364 10.7346 29.2551 10.6362C29.2738 10.5379 29.2726 10.4368 29.2517 10.3389C29.2307 10.241 29.1904 10.1483 29.133 10.0663C29.0756 9.98421 29.0024 9.91447 28.9177 9.86116C28.833 9.80785 28.7384 9.77204 28.6396 9.75585C28.5408 9.73966 28.4398 9.7434 28.3425 9.76687L7.3425 14.2669C7.16159 14.3059 7.00149 14.4105 6.89302 14.5604C6.78455 14.7104 6.73535 14.8952 6.75489 15.0792C6.77444 15.2632 6.86134 15.4336 6.99889 15.5574C7.13644 15.6812 7.31492 15.7498 7.5 15.75C7.55326 15.7499 7.60636 15.7442 7.65844 15.7331L8.25 15.6066V23.25H7.5C7.30109 23.25 7.11032 23.329 6.96967 23.4697C6.82902 23.6103 6.75 23.8011 6.75 24C6.75 24.1989 6.82902 24.3897 6.96967 24.5303C7.11032 24.671 7.30109 24.75 7.5 24.75H28.5C28.6989 24.75 28.8897 24.671 29.0303 24.5303C29.171 24.3897 29.25 24.1989 29.25 24C29.25 23.8011 29.171 23.6103 29.0303 23.4697C28.8897 23.329 28.6989 23.25 28.5 23.25ZM23.25 23.25H12.75V21.75H23.25V23.25ZM23.25 20.25H12.75V18.75H23.25V20.25Z" fill="#263330"/>
</svg>
