<svg width="21" height="21" viewBox="0 0 21 21" fill="none" xmlns="http://www.w3.org/2000/svg">
<path d="M8.6188e-06 10.5C8.53324e-06 11.4787 0.704072 12.2128 1.32563 12.8606C1.67907 13.23 2.0447 13.6106 2.18251 13.9453C2.31001 14.2519 2.31751 14.76 2.32501 15.2522C2.33907 16.1672 2.35407 17.2041 3.07501 17.925C3.79594 18.6459 4.83282 18.6609 5.74782 18.675C6.24 18.6825 6.74813 18.69 7.05469 18.8175C7.38938 18.9553 7.77001 19.3209 8.13938 19.6744C8.78719 20.2959 9.52125 21 10.5 21C11.4788 21 12.2128 20.2959 12.8606 19.6744C13.23 19.3209 13.6106 18.9553 13.9453 18.8175C14.2519 18.69 14.76 18.6825 15.2522 18.675C16.1672 18.6609 17.2041 18.6459 17.925 17.925C18.6459 17.2041 18.6609 16.1672 18.675 15.2522C18.6825 14.76 18.69 14.2519 18.8175 13.9453C18.9553 13.6106 19.3209 13.23 19.6744 12.8606C20.2959 12.2128 21 11.4787 21 10.5C21 9.52125 20.2959 8.78718 19.6744 8.13937C19.3209 7.77 18.9553 7.38937 18.8175 7.05468C18.69 6.74812 18.6825 6.24 18.675 5.74781C18.6609 4.83281 18.6459 3.79594 17.925 3.075C17.2041 2.35406 16.1672 2.33906 15.2522 2.325C14.76 2.3175 14.2519 2.31 13.9453 2.1825C13.6106 2.04469 13.23 1.67906 12.8606 1.32562C12.2128 0.704061 11.4788 -8.32374e-07 10.5 -9.17939e-07C9.52126 -1.0035e-06 8.78719 0.704061 8.13938 1.32562C7.77001 1.67906 7.38938 2.04469 7.05469 2.1825C6.74813 2.31 6.24001 2.3175 5.74782 2.325C4.83282 2.33906 3.79595 2.35406 3.07501 3.075C2.35407 3.79593 2.33907 4.83281 2.32501 5.74781C2.31751 6.24 2.31001 6.74812 2.18251 7.05468C2.0447 7.38937 1.67907 7.76999 1.32563 8.13937C0.704072 8.78718 8.70437e-06 9.52124 8.6188e-06 10.5Z" fill="#263330"/>
</svg>
