<svg width="28" height="28" viewBox="0 0 28 28" fill="none" xmlns="http://www.w3.org/2000/svg">
<path d="M26.2204 22.75H24.5V10.5C24.5 10.0358 24.3156 9.59073 23.9874 9.26254C23.6592 8.93435 23.2141 8.74997 22.75 8.74997H17.9375C17.8214 8.74997 17.7102 8.79607 17.6281 8.87811C17.5461 8.96016 17.5 9.07144 17.5 9.18747V22.75H15.75V3.54482C15.7529 3.27223 15.6937 3.00256 15.577 2.75622C15.4603 2.50988 15.289 2.29332 15.0762 2.12294C14.7862 1.8968 14.4322 1.76779 14.0647 1.75424C13.6971 1.74069 13.3346 1.84329 13.0287 2.04747L4.27872 7.87497C4.03868 8.03512 3.84197 8.25214 3.7061 8.5067C3.57024 8.76127 3.49942 9.04548 3.49997 9.33404V22.75H1.7795C1.55339 22.7466 1.33439 22.829 1.16658 22.9806C0.998762 23.1322 0.894573 23.3417 0.874969 23.567C0.867022 23.6867 0.883769 23.8067 0.92417 23.9197C0.96457 24.0326 1.02776 24.1361 1.10982 24.2235C1.19188 24.311 1.29105 24.3807 1.40117 24.4283C1.51129 24.4758 1.63002 24.5002 1.74997 24.5H26.25C26.3699 24.5002 26.4886 24.4758 26.5988 24.4283C26.7089 24.3807 26.8081 24.311 26.8901 24.2235C26.9722 24.1361 27.0354 24.0326 27.0758 23.9197C27.1162 23.8067 27.1329 23.6867 27.125 23.567C27.1054 23.3417 27.0012 23.1322 26.8334 22.9806C26.6655 22.829 26.4466 22.7466 26.2204 22.75ZM8.31247 20.125C8.31273 20.2449 8.28833 20.3637 8.24078 20.4738C8.19323 20.5839 8.12354 20.6831 8.03604 20.7651C7.94855 20.8472 7.84512 20.9104 7.73218 20.9508C7.61923 20.9912 7.49919 21.0079 7.3795 21C7.15402 20.9804 6.94435 20.876 6.79275 20.708C6.64114 20.5399 6.55885 20.3207 6.56247 20.0943V18.4045C6.55939 18.1785 6.64189 17.9596 6.79342 17.7919C6.94495 17.6241 7.15431 17.5198 7.3795 17.5C7.49919 17.492 7.61923 17.5088 7.73218 17.5492C7.84512 17.5896 7.94855 17.6528 8.03604 17.7348C8.12354 17.8169 8.19323 17.9161 8.24078 18.0262C8.28833 18.1363 8.31273 18.255 8.31247 18.375V20.125ZM8.31247 14C8.31273 14.1199 8.28833 14.2387 8.24078 14.3488C8.19323 14.4589 8.12354 14.5581 8.03604 14.6401C7.94855 14.7222 7.84512 14.7854 7.73218 14.8258C7.61923 14.8662 7.49919 14.8829 7.3795 14.875C7.15412 14.8551 6.9446 14.7507 6.79304 14.5827C6.64148 14.4147 6.55911 14.1956 6.56247 13.9693V12.2795C6.55939 12.0535 6.64189 11.8346 6.79342 11.6669C6.94495 11.4991 7.15431 11.3948 7.3795 11.375C7.49919 11.367 7.61923 11.3838 7.73218 11.4242C7.84512 11.4646 7.94855 11.5278 8.03604 11.6098C8.12354 11.6919 8.19323 11.7911 8.24078 11.9012C8.28833 12.0113 8.31273 12.13 8.31247 12.25V14ZM12.6875 20.125C12.6877 20.2449 12.6633 20.3637 12.6158 20.4738C12.5682 20.5839 12.4985 20.6831 12.411 20.7651C12.3236 20.8472 12.2201 20.9104 12.1072 20.9508C11.9942 20.9912 11.8742 21.0079 11.7545 21C11.5294 20.9804 11.3201 20.8763 11.1685 20.7088C11.0169 20.5412 10.9344 20.3225 10.9375 20.0965V18.4045C10.9347 18.1786 11.0173 17.9601 11.1688 17.7925C11.3203 17.625 11.5295 17.5209 11.7545 17.5011C11.8742 17.4931 11.9942 17.5099 12.1072 17.5503C12.2201 17.5907 12.3236 17.6539 12.411 17.7359C12.4985 17.818 12.5682 17.9171 12.6158 18.0273C12.6633 18.1374 12.6877 18.2561 12.6875 18.3761V20.125ZM12.6875 14C12.6877 14.1199 12.6633 14.2387 12.6158 14.3488C12.5682 14.4589 12.4985 14.5581 12.411 14.6401C12.3236 14.7222 12.2201 14.7854 12.1072 14.8258C11.9942 14.8662 11.8742 14.8829 11.7545 14.875C11.5295 14.8551 11.3203 14.751 11.1688 14.5835C11.0173 14.416 10.9347 14.1974 10.9375 13.9715V12.2795C10.9347 12.0536 11.0173 11.8351 11.1688 11.6675C11.3203 11.5 11.5295 11.3959 11.7545 11.3761C11.8742 11.3681 11.9942 11.3849 12.1072 11.4253C12.2201 11.4657 12.3236 11.5289 12.411 11.6109C12.4985 11.693 12.5682 11.7921 12.6158 11.9023C12.6633 12.0124 12.6877 12.1311 12.6875 12.2511V14Z" fill="#263330"/>
</svg>
