<svg width="24" height="24" viewBox="0 0 24 24" fill="none" xmlns="http://www.w3.org/2000/svg">
<path d="M3.03001 6.20158L11.28 1.68752C11.5004 1.56572 11.7482 1.50183 12 1.50183C12.2518 1.50183 12.4996 1.56572 12.72 1.68752L20.97 6.20345C21.2056 6.33237 21.4023 6.52217 21.5395 6.75304C21.6767 6.98391 21.7494 7.24739 21.75 7.51595L21.75 16.4822C21.7494 16.7508 21.6767 17.0142 21.5395 17.2451C21.4023 17.476 21.2056 17.6658 20.97 17.7947L12.72 22.3106C12.4996 22.4324 12.2518 22.4963 12 22.4963C11.7482 22.4963 11.5004 22.4324 11.28 22.3106L3.03001 17.7947C2.7944 17.6658 2.59773 17.476 2.46052 17.2451C2.32332 17.0142 2.25062 16.7508 2.25001 16.4822L2.25001 7.51689C2.25011 7.24785 2.32258 6.98379 2.45981 6.75237C2.59704 6.52096 2.79399 6.33072 3.03001 6.20158ZM12 11.25L19.5328 7.12502L12 3.00002L4.4672 7.12502L12 11.25ZM11.25 20.5913L11.25 12.5466L3.75001 8.4422L3.75001 16.4822L11.25 20.5913Z" fill="#263330"/>
</svg>
