<svg width="28" height="28" viewBox="0 0 28 28" fill="none" xmlns="http://www.w3.org/2000/svg">
<path d="M4.8125 13.125H23.1952C23.3112 13.125 23.4225 13.0789 23.5045 12.9969C23.5866 12.9148 23.6327 12.8035 23.6327 12.6875V9.625C23.6327 9.51006 23.6102 9.39623 23.5663 9.29001C23.5224 9.18379 23.4579 9.08726 23.3767 9.00594L17.2517 2.88094C17.1701 2.79945 17.0733 2.73489 16.9666 2.69097C16.86 2.64704 16.7458 2.62463 16.6305 2.625H6.125C5.66087 2.625 5.21575 2.80938 4.88756 3.13757C4.55937 3.46576 4.375 3.91088 4.375 4.375V12.6875C4.375 12.8035 4.42109 12.9148 4.50314 12.9969C4.58519 13.0789 4.69647 13.125 4.8125 13.125ZM16.625 4.8125L21.4375 9.625H16.625V4.8125ZM5.6875 15.75H3.9375C3.70544 15.75 3.48288 15.8422 3.31878 16.0063C3.15469 16.1704 3.0625 16.3929 3.0625 16.625V22.75C3.0625 22.9821 3.15469 23.2046 3.31878 23.3687C3.48288 23.5328 3.70544 23.625 3.9375 23.625H5.61422C7.76562 23.625 9.57578 21.9319 9.625 19.7827C9.63769 19.2576 9.54522 18.7354 9.35304 18.2466C9.16085 17.7578 8.87283 17.3125 8.50592 16.9367C8.13902 16.5609 7.70065 16.2624 7.21662 16.0586C6.73259 15.8548 6.21269 15.7499 5.6875 15.75ZM5.63391 21.875H4.8125V17.5H5.6875C5.98199 17.4998 6.2735 17.559 6.54454 17.6742C6.81558 17.7894 7.06058 17.9581 7.26485 18.1702C7.46912 18.3823 7.62845 18.6335 7.7333 18.9087C7.83814 19.1839 7.88634 19.4774 7.875 19.7717C7.83016 20.9552 6.81953 21.875 5.635 21.875H5.63391ZM24.3009 21.4069C24.4409 21.5828 24.5103 21.8045 24.4955 22.0288C24.4808 22.2531 24.3829 22.4638 24.2211 22.6198C23.9177 22.935 23.5543 23.1862 23.1523 23.3588C22.7503 23.5315 22.3179 23.6219 21.8805 23.625C19.95 23.625 18.3805 21.8586 18.3805 19.6875C18.3805 17.5164 19.9511 15.75 21.8805 15.75C22.3179 15.7531 22.7503 15.8436 23.1523 16.0162C23.5543 16.1888 23.9177 16.4401 24.2211 16.7552C24.3829 16.9112 24.4808 17.1219 24.4955 17.3462C24.5103 17.5705 24.4409 17.7922 24.3009 17.9681C24.2218 18.0621 24.1238 18.1384 24.0133 18.192C23.9028 18.2456 23.7822 18.2753 23.6594 18.2792C23.5366 18.2832 23.4144 18.2612 23.3007 18.2147C23.187 18.1683 23.0843 18.0984 22.9994 18.0097C22.8575 17.8532 22.6852 17.7273 22.493 17.6397C22.3008 17.5521 22.0927 17.5045 21.8816 17.5C20.9169 17.5 20.1316 18.4844 20.1316 19.6875C20.1316 20.8906 20.9169 21.875 21.8816 21.875C22.0929 21.8704 22.301 21.8228 22.4934 21.7352C22.6858 21.6475 22.8583 21.5217 23.0005 21.3653C23.0854 21.2766 23.1881 21.2067 23.3018 21.1603C23.4155 21.1138 23.5377 21.0919 23.6605 21.0958C23.7833 21.0997 23.9039 21.1294 24.0144 21.183C24.1249 21.2366 24.2229 21.3129 24.302 21.4069H24.3009ZM14 15.75C12.0695 15.75 10.5 17.5164 10.5 19.6875C10.5 21.8586 12.0717 23.625 14 23.625C15.9283 23.625 17.5 21.8586 17.5 19.6875C17.5 17.5164 15.9348 15.75 14 15.75ZM14 21.875C13.0342 21.875 12.25 20.8906 12.25 19.6875C12.25 18.4844 13.0353 17.5 14 17.5C14.9647 17.5 15.75 18.4844 15.75 19.6875C15.75 20.8906 14.9691 21.875 14 21.875Z" fill="#263330"/>
</svg>
