<svg width="24" height="24" viewBox="0 0 24 24" fill="none" xmlns="http://www.w3.org/2000/svg">
<path d="M0.750009 13.5C0.750009 13.6989 0.829026 13.8897 0.969678 14.0303C1.11033 14.171 1.3011 14.25 1.50001 14.25C1.69892 14.25 1.88969 14.171 2.03034 14.0303C2.17099 13.8897 2.25001 13.6989 2.25001 13.5C2.25274 11.1139 3.20183 8.82629 4.88906 7.13905C6.5763 5.45182 8.8639 4.50273 11.25 4.5C11.3813 4.5 11.5125 4.5 11.6419 4.50938C13.5602 4.61111 15.3665 5.44453 16.6888 6.83802C18.0112 8.2315 18.7489 10.079 18.75 12C18.7483 13.5908 18.1156 15.1159 16.9907 16.2407C15.8659 17.3656 14.3408 17.9983 12.75 18C11.6564 17.9988 10.6079 17.5638 9.83456 16.7904C9.06124 16.0171 8.62625 14.9686 8.625 13.875C8.625 13.0793 8.94108 12.3163 9.50369 11.7537C10.0663 11.1911 10.8294 10.875 11.625 10.875C11.8239 10.875 12.0147 10.954 12.1553 11.0947C12.296 11.2353 12.375 11.4261 12.375 11.625C12.375 11.8239 12.296 12.0147 12.1553 12.1553C12.0147 12.296 11.8239 12.375 11.625 12.375C11.2272 12.375 10.8456 12.533 10.5643 12.8143C10.283 13.0956 10.125 13.4772 10.125 13.875C10.125 14.5712 10.4016 15.2389 10.8938 15.7312C11.3861 16.2234 12.0538 16.5 12.75 16.5C13.9431 16.4988 15.087 16.0243 15.9306 15.1806C16.7743 14.337 17.2488 13.1931 17.25 12C17.2483 10.4092 16.6156 8.88412 15.4907 7.75928C14.3659 6.63444 12.8408 6.00174 11.25 6C9.26157 6.00223 7.35521 6.79313 5.94917 8.19916C4.54313 9.6052 3.75224 11.5116 3.75001 13.5C3.75249 15.6873 4.62248 17.7842 6.16911 19.3309C7.71575 20.8775 9.81273 21.7475 12 21.75C14.3861 21.7473 16.6737 20.7982 18.3609 19.1109C20.0482 17.4237 20.9973 15.1361 21 12.75C20.9973 10.165 19.9692 7.68661 18.1413 5.85872C16.3134 4.03084 13.835 3.00273 11.25 3C8.46615 3.00298 5.79716 4.11018 3.82868 6.07867C1.86019 8.04715 0.752986 10.7161 0.750009 13.5Z" fill="#263330"/>
</svg>
